<svg width="24" height="24" viewBox="0 0 24 24" fill="none" xmlns="http://www.w3.org/2000/svg">
<g clip-path="url(#clip0_10_14417)">
<path d="M4.5 5V19C4.5 19.1326 4.55268 19.2598 4.64645 19.3536C4.74021 19.4473 4.86739 19.5 5 19.5H19C19.1326 19.5 19.2598 19.4473 19.3536 19.3536C19.4473 19.2598 19.5 19.1326 19.5 19V5C19.5 4.86739 19.4473 4.74021 19.3536 4.64645C19.2598 4.55268 19.1326 4.5 19 4.5H16.5V4H15.5V4.5H8.5V4H7.5V4.5H5C4.86739 4.5 4.74021 4.55268 4.64645 4.64645C4.55268 4.74021 4.5 4.86739 4.5 5ZM5.5 5.5H7.5V6H8.5V5.5H15.5V6H16.5V5.5H18.5V7.13H5.5V5.5ZM5.5 8.13H18.5V18.5H5.5V8.13Z" fill="#FF4555"/>
<path d="M9.2998 12.37H7.7998V13.87H9.2998V12.37Z" fill="#FF4555"/>
<path d="M12.75 12.37H11.25V13.87H12.75V12.37Z" fill="#FF4555"/>
<path d="M16.2002 12.37H14.7002V13.87H16.2002V12.37Z" fill="#FF4555"/>
</g>
<defs>
<clipPath id="clip0_10_14417">
<rect width="24" height="24" fill="white"/>
</clipPath>
</defs>
</svg>
