<svg width="24" height="25" viewBox="0 0 24 25" fill="none" xmlns="http://www.w3.org/2000/svg">
<g clip-path="url(#clip0_542_24785)">
<path d="M4.5 5.5V19.5C4.5 19.6326 4.55268 19.7598 4.64645 19.8536C4.74021 19.9473 4.86739 20 5 20H19C19.1326 20 19.2598 19.9473 19.3536 19.8536C19.4473 19.7598 19.5 19.6326 19.5 19.5V5.5C19.5 5.36739 19.4473 5.24021 19.3536 5.14645C19.2598 5.05268 19.1326 5 19 5H16.5V4.5H15.5V5H8.5V4.5H7.5V5H5C4.86739 5 4.74021 5.05268 4.64645 5.14645C4.55268 5.24021 4.5 5.36739 4.5 5.5ZM5.5 6H7.5V6.5H8.5V6H15.5V6.5H16.5V6H18.5V7.63H5.5V6ZM5.5 8.63H18.5V19H5.5V8.63Z" fill="#1D6CEB"/>
<path d="M9.30005 12.8701H7.80005V14.3701H9.30005V12.8701Z" fill="#1D6CEB"/>
<path d="M12.75 12.8701H11.25V14.3701H12.75V12.8701Z" fill="#1D6CEB"/>
<path d="M16.2 12.8701H14.7V14.3701H16.2V12.8701Z" fill="#1D6CEB"/>
</g>
<defs>
<clipPath id="clip0_542_24785">
<rect width="24" height="24" fill="white" transform="translate(0 0.5)"/>
</clipPath>
</defs>
</svg>
