<svg width="24" height="24" viewBox="0 0 24 24" fill="none" xmlns="http://www.w3.org/2000/svg">
<g clip-path="url(#clip0_311_22959)">
<path d="M12.55 13.0002C12.6907 12.8597 12.7699 12.6691 12.77 12.4702V7.00024H11.27V12.1502L8.79004 14.6402L9.85004 15.7002L12.55 13.0002Z" fill="#262626"/>
<path d="M12 20.5002C13.6811 20.5002 15.3245 20.0017 16.7223 19.0677C18.1202 18.1337 19.2096 16.8062 19.853 15.2531C20.4963 13.6999 20.6646 11.9908 20.3367 10.342C20.0087 8.69314 19.1992 7.17859 18.0104 5.98984C16.8217 4.80109 15.3071 3.99155 13.6583 3.66357C12.0094 3.3356 10.3004 3.50393 8.74719 4.14727C7.19402 4.79062 5.8665 5.88008 4.93251 7.2779C3.99852 8.67572 3.5 10.3191 3.5 12.0002C3.50265 14.2538 4.39903 16.4142 5.99252 18.0077C7.586 19.6012 9.74647 20.4976 12 20.5002ZM12 4.50025C13.4834 4.50025 14.9334 4.94012 16.1668 5.76423C17.4001 6.58834 18.3614 7.75968 18.9291 9.13012C19.4968 10.5006 19.6453 12.0086 19.3559 13.4634C19.0665 14.9183 18.3522 16.2547 17.3033 17.3035C16.2544 18.3524 14.918 19.0667 13.4632 19.3561C12.0083 19.6455 10.5003 19.497 9.12987 18.9293C7.75943 18.3617 6.58809 17.4004 5.76398 16.167C4.93987 14.9337 4.5 13.4836 4.5 12.0002C4.50528 10.0127 5.29715 8.10816 6.70253 6.70278C8.10791 5.2974 10.0125 4.50553 12 4.50025Z" fill="#262626"/>
</g>
<defs>
<clipPath id="clip0_311_22959">
<rect width="24" height="24" fill="white" transform="translate(0 0.000244141)"/>
</clipPath>
</defs>
</svg>
