<svg width="24" height="24" viewBox="0 0 24 24" fill="none" xmlns="http://www.w3.org/2000/svg">
<g clip-path="url(#clip0_165_3908)">
<path d="M4 4.50001V19.5C4 19.6326 4.05268 19.7598 4.14645 19.8536C4.24021 19.9473 4.36739 20 4.5 20H19.5C19.6326 20 19.7598 19.9473 19.8536 19.8536C19.9473 19.7598 20 19.6326 20 19.5V7.75001C19.9991 7.6823 19.9845 7.61547 19.9569 7.55359C19.9294 7.4917 19.8897 7.43605 19.84 7.39001L16.42 4.14001C16.3261 4.04947 16.2005 3.99923 16.07 4.00001H4.5C4.36739 4.00001 4.24021 4.05269 4.14645 4.14646C4.05268 4.24022 4 4.3674 4 4.50001ZM16 19H7.81V13.54H16V19ZM9.55 5.00001H14.28V8.42001H9.55V5.00001ZM5 5.00001H8.55V8.92001C8.55 9.05262 8.60268 9.17979 8.69645 9.27356C8.79021 9.36733 8.91739 9.42001 9.05 9.42001H14.78C14.9126 9.42001 15.0398 9.36733 15.1336 9.27356C15.2273 9.17979 15.28 9.05262 15.28 8.92001V5.00001H15.87L19 8.00001V19H17V13C17 12.8674 16.9473 12.7402 16.8536 12.6465C16.7598 12.5527 16.6326 12.5 16.5 12.5H7.31C7.17739 12.5 7.05021 12.5527 6.95645 12.6465C6.86268 12.7402 6.81 12.8674 6.81 13V19H5V5.00001Z" fill="#1D6CEB"/>
<path d="M13.3198 5.96973H12.3198V7.48973H13.3198V5.96973Z" fill="#1D6CEB"/>
</g>
<defs>
<clipPath id="clip0_165_3908">
<rect width="24" height="24" fill="white"/>
</clipPath>
</defs>
</svg>
