<svg width="81" height="18" viewBox="0 0 81 18" fill="none" xmlns="http://www.w3.org/2000/svg">
<path fill-rule="evenodd" clip-rule="evenodd" d="M34.075 13.8947H35.9528V3.47368H34.075V13.8947ZM33.9265 1.70198H36.1013V0H33.9265V1.70198ZM0 1.30263V13.8947H2.01856V8.1556H7.2907V6.23166H2.01856V3.22657H8.26414V1.30263H0ZM15.0916 12.123H16.1732V11.1678V8.99672H14.6454H12.2761C12.0016 8.99672 11.7894 9.01996 11.6407 9.06644C11.4919 9.1013 11.3831 9.17652 11.3142 9.2921C11.2338 9.4083 11.1824 9.55875 11.16 9.74344C11.137 9.92936 11.1249 10.1605 11.1249 10.4388C11.1249 10.7855 11.1431 11.0693 11.1769 11.2895C11.2114 11.5096 11.2628 11.6833 11.3311 11.8105C11.4006 11.9261 11.5028 12.0075 11.6407 12.0539C11.7894 12.0998 11.9895 12.123 12.2416 12.123H14.6454H15.0916ZM18.1484 5.36709C18.2276 5.79518 18.2681 6.39757 18.2681 7.17304V11.6197V13.8947H16.1732H15.7095H11.9841C11.3202 13.8947 10.7991 13.814 10.4212 13.6519C10.0325 13.4893 9.73985 13.2605 9.54578 12.9652C9.3511 12.6704 9.23623 12.3138 9.20237 11.8974C9.15703 11.4919 9.13405 11.0289 9.13405 10.5079C9.13405 9.91774 9.16791 9.41992 9.23623 9.01446C9.30576 8.58575 9.45751 8.24144 9.69148 7.98091C9.92606 7.72039 10.261 7.52652 10.6957 7.3987C11.1195 7.2715 11.6981 7.20789 12.4309 7.20789H16.1732V6.82567C16.1732 6.37433 16.1448 6.06121 16.0874 5.88814C16.0305 5.71446 15.9217 5.58113 15.7609 5.48818C15.6351 5.40745 15.3377 5.33834 14.8685 5.28024H14.8002C14.3988 5.22215 13.8782 5.19279 13.2374 5.19279C12.6418 5.19279 11.9895 5.24539 11.2797 5.34935C11.0276 5.38421 10.6165 5.45943 10.0433 5.57502L9.73501 5.627V3.85591L9.7864 3.83879C10.8166 3.64186 11.7894 3.52567 12.7053 3.49081C12.9345 3.4798 13.1684 3.47368 13.4091 3.47368C14.5995 3.47368 15.5553 3.54891 16.2766 3.69935C16.8606 3.82717 17.2978 4.02654 17.5904 4.29868C17.8818 4.57083 18.068 4.92676 18.1484 5.36709ZM31.9955 5.33223C31.8675 4.97324 31.6678 4.65767 31.3952 4.38553C31.1226 4.11338 30.766 3.89628 30.3256 3.73421C29.8734 3.56053 29.316 3.47368 28.655 3.47368H27.0542H25.1055H20.0079V13.8947H21.9744V5.21053H25.1055V13.8776H27.0714V5.21053H28.7769C29.2057 5.21053 29.5598 5.36648 29.8379 5.6796C30.0578 5.93401 30.1742 6.24652 30.1859 6.61712V13.8776H32.1867V6.49542C32.1867 6.09057 32.123 5.70284 31.9955 5.33223ZM39.5809 13.8947H37.4061V0H39.5809V13.8947ZM49.5849 13.8776C49.5616 14.6647 49.5268 15.1913 49.4809 15.4579C49.3996 15.8982 49.2058 16.2572 48.8989 16.5349C48.592 16.8125 48.1439 17.0149 47.5539 17.1428C46.8356 17.2932 45.8806 17.3684 44.6884 17.3684C44.4457 17.3684 44.2079 17.3629 43.9768 17.3513C43.0622 17.3164 42.084 17.2009 41.0423 17.0039L40.9732 16.9862V15.1631L41.2856 15.2151C41.8762 15.3423 42.298 15.423 42.553 15.4579C43.2585 15.5509 43.9132 15.5973 44.5148 15.5973C45.1513 15.5973 45.6727 15.568 46.0781 15.5099H46.1472C46.61 15.4524 46.9053 15.3827 47.0324 15.3019C47.1828 15.2206 47.2867 15.0989 47.3454 14.9368C47.4029 14.7515 47.4323 14.4274 47.4323 13.9645V13.8776H46.3899H45.4355H44.4109C43.7628 13.8776 43.2126 13.7969 42.7614 13.6348C42.3212 13.4721 41.9654 13.2526 41.6934 12.9743C41.4213 12.6967 41.2214 12.3781 41.0942 12.0191C40.9561 11.6485 40.8858 11.2607 40.8858 10.8553V9.15328V8.19802V7.74668V6.49603V3.50854H42.9002V6.61774V7.74668V8.19802V9.15328V10.7513V10.8901C42.9351 11.1916 43.0506 11.4522 43.2475 11.6717C43.5256 11.9958 43.8784 12.1579 44.3063 12.1579H45.4355H46.4418H47.4665V10.8901V5.21053V3.50854H49.5849V8.19802V9.15328V13.8776ZM53.8532 4.67398L60.4875 13.8947H62.6335V1.30263H60.5406V10.5234L53.8888 1.30263H51.7596V13.8947H53.8532V4.67398ZM70.646 7.25988V7.13818C70.646 6.50154 70.4368 6.00678 70.0196 5.6533C69.6013 5.29981 68.9695 5.12368 68.1218 5.12368C67.2978 5.12368 66.6593 5.32611 66.2071 5.73097C65.7549 6.13705 65.5294 6.68684 65.5294 7.38158V8.02433H65.7525H66.6279C66.9719 8.03595 67.3323 8.04146 67.7101 8.04146H69.9592C70.2451 8.04146 70.4314 7.99253 70.5172 7.89407C70.6031 7.79561 70.646 7.58401 70.646 7.25988ZM71.5305 4.36779C72.2687 4.96468 72.6375 5.85267 72.6375 7.03421V7.43356C72.6375 7.8849 72.5891 8.2555 72.4918 8.54539C72.3944 8.83466 72.2372 9.06338 72.0196 9.23095C71.8019 9.39913 71.5184 9.51533 71.1695 9.57832C70.8201 9.64253 70.3999 9.67372 69.9072 9.67372H65.5294V9.89939C65.5409 10.3403 65.6207 10.7048 65.77 10.9941C65.9417 11.3066 66.1648 11.5555 66.4393 11.7408C66.7138 11.9261 67.0402 12.0533 67.4181 12.123C67.7845 12.2038 68.2935 12.2441 68.9459 12.2441C69.1061 12.2441 69.3238 12.2331 69.5988 12.2099C69.8618 12.1983 70.1484 12.1695 70.4573 12.123C70.7548 12.0882 71.0583 12.0478 71.3666 12.0013C71.6762 11.9438 71.9507 11.8857 72.1913 11.8277V13.4948C71.9622 13.5535 71.6992 13.6049 71.4017 13.6513C71.1036 13.6978 70.8062 13.7382 70.5081 13.773C70.2107 13.8195 69.9253 13.8513 69.6502 13.8684C69.3751 13.8856 69.1575 13.8947 68.9973 13.8947C68.0475 13.8947 67.2549 13.822 66.6194 13.6776C65.984 13.5327 65.4375 13.2954 64.9798 12.9652C64.5215 12.6355 64.1612 12.2068 63.8982 11.6803C63.6346 11.1531 63.5034 10.5018 63.5034 9.72632V7.34672C63.5034 6.79081 63.6008 6.27832 63.7948 5.80925C63.9895 5.34079 64.2761 4.93226 64.6539 4.5849C65.0421 4.23753 65.5294 3.96599 66.1128 3.76907C66.6968 3.57215 67.3836 3.47368 68.1732 3.47368C69.6732 3.47368 70.7917 3.77152 71.5305 4.36779ZM77.7841 3.39871V1.73684H75.8792V3.39871H73.9423V5.14805H75.8792V11.3058C75.8792 12.0167 76.1084 12.6203 76.5667 13.1162C77.0249 13.612 77.5905 13.8713 78.2639 13.8947H78.2808H80.4667V11.883H79.0423C78.6336 11.883 78.3245 11.7666 78.1146 11.5331C77.9053 11.2997 77.7951 11.0145 77.7841 10.6757V5.14805H80.4667V3.39871H77.7841Z" fill="#1D6CEB"/>
</svg>
