<svg width="68" height="68" viewBox="0 0 68 68" fill="none" xmlns="http://www.w3.org/2000/svg">
<path fill-rule="evenodd" clip-rule="evenodd" d="M0 67.1053H67.0556V0H0V67.1053Z" fill="white"/>
<path fill-rule="evenodd" clip-rule="evenodd" d="M33.8044 55.4287C32.3124 55.4287 30.9098 54.8474 29.8546 53.792L14.1756 38.1112C8.15344 32.0876 8.15082 22.2841 14.1694 16.2574C17.9472 12.4741 23.3173 10.9256 28.5349 12.1155C29.6632 12.3728 30.3695 13.4968 30.1124 14.6261C29.8552 15.7552 28.7319 16.4626 27.6036 16.2048C23.801 15.3378 19.8866 16.4653 17.1339 19.2221C12.7486 23.6132 12.7505 30.756 17.1382 35.1447L32.817 50.8254C33.0809 51.0894 33.4315 51.2346 33.8044 51.2346H33.8049C34.1779 51.2345 34.5287 51.089 34.7923 50.825C35.2055 50.4113 35.3084 49.7717 35.0487 49.2334C34.6612 48.4304 34.8236 47.4697 35.4536 46.839C36.0835 46.208 37.0434 46.045 37.846 46.4325C38.3838 46.6922 39.023 46.5885 39.436 46.175C39.8492 45.7612 39.9523 45.1216 39.6925 44.5835C39.3048 43.7803 39.4673 42.8196 40.0976 42.1887C40.7278 41.5581 41.6878 41.3954 42.4905 41.7829C43.0277 42.0424 43.6664 41.9388 44.0799 41.5251C44.493 41.1113 44.596 40.4717 44.3363 39.9334C43.9487 39.1303 44.1112 38.1694 44.7413 37.5387C45.3716 36.9079 46.3315 36.7453 47.1342 37.1328C47.6717 37.3926 48.3105 37.2891 48.7239 36.8751C49.2679 36.3302 49.2678 35.4433 48.7231 34.8984L40.5572 26.7314L30.4782 31.7392C30.4402 31.7581 30.4016 31.7758 30.3624 31.7923C29.6939 32.0753 28.9856 32.2188 28.2574 32.2191H28.2558C25.2746 32.2193 22.8492 29.7924 22.8483 26.8088C22.8479 25.4772 23.3352 24.1974 24.2207 23.2049C24.2428 23.1799 24.2656 23.1557 24.2889 23.1319L31.0289 16.2652C31.0331 16.2609 31.0375 16.2567 31.0416 16.2523C33.9574 13.3327 37.8346 11.7242 41.9593 11.723H41.964C46.087 11.723 49.9631 13.3291 52.8792 16.2459C56.7187 20.086 58.2686 25.7443 56.924 31.0126C56.6376 32.1348 55.4966 32.8123 54.3751 32.5255C53.2538 32.2389 52.577 31.097 52.8634 29.9748C53.8434 26.1345 52.7143 22.0105 49.9166 19.2123C47.792 17.0874 44.9677 15.9171 41.964 15.9171H41.9604C38.9579 15.918 36.1351 17.088 34.0115 19.2117L27.3222 26.0266C27.1877 26.1872 27.0391 26.446 27.0393 26.8075C27.0395 27.479 27.5853 28.025 28.2558 28.025H28.2562C28.4047 28.025 28.5491 27.9989 28.6857 27.9473L40.0418 22.3048C40.8473 21.9044 41.8187 22.0635 42.455 22.6998L51.6856 31.9319C53.8646 34.1112 53.8659 37.6588 51.6882 39.8401C50.8338 40.6953 49.7471 41.2258 48.6035 41.4024C48.4276 42.5474 47.8981 43.6347 47.0442 44.4898C46.19 45.3451 45.1037 45.8758 43.9598 46.0524C43.7839 47.1973 43.2544 48.2846 42.4004 49.1398C41.5464 49.9949 40.4599 50.5254 39.3159 50.7021C39.1403 51.8471 38.6108 52.9345 37.7566 53.7897C36.7017 54.8463 35.2986 55.4282 33.8061 55.4287H33.8044Z" fill="#1D6CEB"/>
<path fill-rule="evenodd" clip-rule="evenodd" d="M46.2238 41.0091C45.7157 41.0091 45.2076 40.8153 44.8198 40.4275L38.5285 34.1352C37.7526 33.3591 37.7522 32.1006 38.5276 31.3241C39.3031 30.5477 40.5606 30.5474 41.3365 31.3234L47.6278 37.6156C48.4038 38.3916 48.404 39.6501 47.6287 40.4267C47.2408 40.815 46.7322 41.0091 46.2238 41.0091Z" fill="#1D6CEB"/>
<path fill-rule="evenodd" clip-rule="evenodd" d="M41.5792 45.6592C41.0711 45.6592 40.5631 45.4653 40.1753 45.0775L34.6358 39.5371C33.86 38.7611 33.8596 37.5027 34.6351 36.7262C35.4104 35.9496 36.6679 35.9493 37.4438 36.7254L42.9832 42.2656C43.7592 43.0417 43.7595 44.3002 42.9841 45.0767C42.5962 45.4651 42.0877 45.6592 41.5792 45.6592Z" fill="#1D6CEB"/>
<path fill-rule="evenodd" clip-rule="evenodd" d="M36.9364 50.309C36.4282 50.309 35.9202 50.1152 35.5324 49.7273L30.6583 44.8525C29.8825 44.0765 29.8821 42.8181 30.6575 42.0416C31.433 41.265 32.6905 41.2649 33.4663 42.0408L38.3404 46.9155C39.1163 47.6915 39.1166 48.95 38.3413 49.7265C37.9534 50.1149 37.4448 50.309 36.9364 50.309Z" fill="#1D6CEB"/>
<path fill-rule="evenodd" clip-rule="evenodd" d="M21.7138 44.7822C21.1778 44.7822 20.6416 44.5776 20.2325 44.1684L14.176 38.1111C11.2587 35.1932 9.65144 31.3132 9.65039 27.1855C9.64908 23.0579 11.2542 19.1768 14.17 16.2572C17.9481 12.474 23.3183 10.9258 28.5353 12.1154C29.6637 12.3727 30.37 13.4967 30.1128 14.6258C29.8557 15.7551 28.7323 16.4626 27.6041 16.2045C23.8013 15.3379 19.8874 16.4653 17.1343 19.222C15.0099 21.3492 13.8404 24.1769 13.8414 27.1844C13.8421 30.1918 15.0131 33.0187 17.1386 35.1445L23.1951 41.2019C24.0138 42.0207 24.014 43.3483 23.196 44.1676C22.7869 44.5773 22.2503 44.7822 21.7138 44.7822Z" fill="#FF4555"/>
<path fill-rule="evenodd" clip-rule="evenodd" d="M23.8091 42.6845C23.8094 43.8426 22.8715 44.7818 21.7143 44.7822C20.5569 44.7826 19.6184 43.8439 19.6182 42.6858C19.6179 41.5277 20.5558 40.5884 21.713 40.5881C22.8702 40.5877 23.8089 41.5264 23.8091 42.6845Z" fill="#CC3744"/>
</svg>
