<svg width="40" height="16" viewBox="0 0 40 16" fill="none" xmlns="http://www.w3.org/2000/svg">
<path fill-rule="evenodd" clip-rule="evenodd" d="M35.0369 3.66819C35.0369 2.62892 34.1172 1.87402 32.9823 1.87402C31.8477 1.87402 30.928 2.63322 30.928 3.66819C30.928 4.70352 31.8477 5.46236 32.9823 5.46236C34.1172 5.46236 35.0369 4.69563 35.0369 3.66819ZM36.9207 3.64596C36.9207 5.82887 35.1595 6.92767 32.9868 6.92767C30.8141 6.92767 29.0526 5.82887 29.0526 3.64596C29.0526 1.49676 30.8141 0.364243 32.9868 0.364243C35.1595 0.364243 36.9207 1.49676 36.9207 3.64596ZM26.6138 10.9898C26.6138 10.9898 22.936 10.5154 20.7256 6.79362C18.5118 10.5154 14.8374 10.9898 14.8374 10.9898V9.2957C18.3996 8.2514 19.7354 5.06867 19.7354 2.73514V0.893635H21.7156V2.73514C21.7156 5.06867 23.0513 8.24351 26.6138 9.2957V10.9898ZM26.967 14.9894H14.4839V13.4054H26.967V14.9894ZM31.3838 14.1208V10.2029H29.479V15.7285H39.8747V14.1208H31.3838ZM10.644 15.7192H12.3986V0.530677H10.644V15.7192ZM1.75665 6.83049C1.75665 10.0376 2.56144 10.9804 3.55416 10.9804C4.54723 10.9804 5.35168 10.0376 5.35168 6.83049C5.35168 3.64165 4.54723 2.68056 3.55416 2.68056C2.56144 2.68056 1.75665 3.64165 1.75665 6.83049ZM7.05069 5.57532H7.99101V0.530641H9.73928V15.7192H7.99101V7.16149H7.09924C7.01436 11.0769 5.46206 12.8596 3.55381 12.8596C1.59108 12.8596 0 10.9804 0 6.82726C0 2.68056 1.59108 0.794584 3.55381 0.794584C5.30627 0.794584 6.75867 2.30293 7.05069 5.57532ZM37.3233 7.40162H28.5499V8.8906H32.0541V12.0687H33.9348V8.8906H37.3233V7.40162ZM37.8916 9.6262V0.539894H39.6479V12.9011H37.8916V11.1995H35.0095V9.6262H37.8916Z" fill="#004098"/>
</svg>
