<svg width="40" height="16" viewBox="0 0 40 16" fill="none" xmlns="http://www.w3.org/2000/svg">
<path fill-rule="evenodd" clip-rule="evenodd" d="M35.0369 3.30395C35.0369 2.26467 34.1172 1.50978 32.9823 1.50978C31.8477 1.50978 30.928 2.26898 30.928 3.30395C30.928 4.33928 31.8477 5.09812 32.9823 5.09812C34.1172 5.09812 35.0369 4.33139 35.0369 3.30395ZM36.9207 3.28171C36.9207 5.46462 35.1595 6.56343 32.9868 6.56343C30.8141 6.56343 29.0526 5.46462 29.0526 3.28171C29.0526 1.13252 30.8141 0 32.9868 0C35.1595 0 36.9207 1.13252 36.9207 3.28171ZM26.6138 10.6256C26.6138 10.6256 22.936 10.1511 20.7256 6.42938C18.5118 10.1511 14.8374 10.6256 14.8374 10.6256V8.93146C18.3996 7.88716 19.7354 4.70442 19.7354 2.3709V0.529392H21.7156V2.3709C21.7156 4.70442 23.0513 7.87927 26.6138 8.93146V10.6256ZM26.967 14.6252H14.4839V13.0412H26.967V14.6252ZM31.3838 13.7566V9.83865H29.479V15.3642H39.8747V13.7566H31.3838ZM10.644 15.355H12.3986V0.166435H10.644V15.355ZM1.75665 6.46624C1.75665 9.67337 2.56144 10.6162 3.55416 10.6162C4.54723 10.6162 5.35168 9.67337 5.35168 6.46624C5.35168 3.27741 4.54723 2.31631 3.55416 2.31631C2.56144 2.31631 1.75665 3.27741 1.75665 6.46624ZM7.05069 5.21108H7.99101V0.166399H9.73928V15.355H7.99101V6.79725H7.09924C7.01436 10.7126 5.46206 12.4953 3.55381 12.4953C1.59108 12.4953 0 10.6162 0 6.46302C0 2.31631 1.59108 0.430342 3.55381 0.430342C5.30627 0.430342 6.75867 1.93869 7.05069 5.21108ZM37.3233 7.03738H28.5499V8.52636H32.0541V11.7044H33.9348V8.52636H37.3233V7.03738ZM37.8916 9.26196V0.175651H39.6479V12.5369H37.8916V10.8352H35.0095V9.26196H37.8916Z" fill="#C4C4C4"/>
</svg>
