<svg width="40" height="17" viewBox="0 0 40 17" fill="none" xmlns="http://www.w3.org/2000/svg">
<path fill-rule="evenodd" clip-rule="evenodd" d="M35.0369 4.03243C35.0369 2.99316 34.1172 2.23827 32.9823 2.23827C31.8477 2.23827 30.928 2.99746 30.928 4.03243C30.928 5.06776 31.8477 5.8266 32.9823 5.8266C34.1172 5.8266 35.0369 5.05988 35.0369 4.03243ZM36.9207 4.0102C36.9207 6.19311 35.1595 7.29191 32.9868 7.29191C30.8141 7.29191 29.0526 6.19311 29.0526 4.0102C29.0526 1.861 30.8141 0.728485 32.9868 0.728485C35.1595 0.728485 36.9207 1.861 36.9207 4.0102ZM26.6138 11.3541C26.6138 11.3541 22.936 10.8796 20.7256 7.15786C18.5118 10.8796 14.8374 11.3541 14.8374 11.3541V9.65994C18.3996 8.61565 19.7354 5.43291 19.7354 3.09938V1.25788H21.7156V3.09938C21.7156 5.43291 23.0513 8.60776 26.6138 9.65994V11.3541ZM26.967 15.3537H14.4839V13.7697H26.967V15.3537ZM31.3838 14.485V10.5671H29.479V16.0927H39.8747V14.485H31.3838ZM10.644 16.0835H12.3986V0.89492H10.644V16.0835ZM1.75665 7.19473C1.75665 10.4019 2.56144 11.3447 3.55416 11.3447C4.54723 11.3447 5.35168 10.4019 5.35168 7.19473C5.35168 4.0059 4.54723 3.0448 3.55416 3.0448C2.56144 3.0448 1.75665 4.0059 1.75665 7.19473ZM7.05069 5.93957H7.99101V0.894884H9.73928V16.0834H7.99101V7.52573H7.09924C7.01436 11.4411 5.46206 13.2238 3.55381 13.2238C1.59108 13.2238 0 11.3447 0 7.1915C0 3.0448 1.59108 1.15883 3.55381 1.15883C5.30627 1.15883 6.75867 2.66717 7.05069 5.93957ZM37.3233 7.76586H28.5499V9.25485H32.0541V12.4329H33.9348V9.25485H37.3233V7.76586ZM37.8916 9.99045V0.904136H39.6479V13.2653H37.8916V11.5637H35.0095V9.99045H37.8916Z" fill="white"/>
</svg>
