<svg width="68" height="68" viewBox="0 0 68 68" fill="none" xmlns="http://www.w3.org/2000/svg">
<path fill-rule="evenodd" clip-rule="evenodd" d="M26.441 54.3357C25.2837 54.3357 24.3457 53.397 24.3457 52.2389V14.8664C24.3457 13.7082 25.2837 12.7695 26.441 12.7695H46.8953C48.0526 12.7695 48.9906 13.7082 48.9906 14.8664V34.0087C48.9906 35.1669 48.0526 36.1056 46.8953 36.1056C45.738 36.1056 44.7996 35.1669 44.7996 34.0087V16.9636H28.5363V52.2389C28.5363 53.397 27.5983 54.3357 26.441 54.3357Z" fill="#1D6CEB"/>
<path fill-rule="evenodd" clip-rule="evenodd" d="M26.4409 54.3357C25.2836 54.3357 24.3457 53.3971 24.3457 52.2389V31.068H14.7046V52.2389C14.7046 53.3971 13.7667 54.3357 12.6094 54.3357C11.4521 54.3357 10.5137 53.3971 10.5137 52.2389V28.9707C10.5137 27.8126 11.4521 26.8739 12.6094 26.8739H26.4409C27.5982 26.8739 28.5362 27.8126 28.5362 28.9707V52.2389C28.5362 53.3971 27.5982 54.3357 26.4409 54.3357Z" fill="#1D6CEB"/>
<path fill-rule="evenodd" clip-rule="evenodd" d="M40.4675 23.9497H33.1885C32.0312 23.9497 31.0928 23.011 31.0928 21.8529C31.0928 20.6943 32.0312 19.7556 33.1885 19.7556H40.4675C41.6248 19.7556 42.5628 20.6943 42.5628 21.8529C42.5628 23.011 41.6248 23.9497 40.4675 23.9497Z" fill="#1D6CEB"/>
<path fill-rule="evenodd" clip-rule="evenodd" d="M40.4675 31.0679H33.1885C32.0312 31.0679 31.0928 30.1292 31.0928 28.971C31.0928 27.8125 32.0312 26.8738 33.1885 26.8738H40.4675C41.6248 26.8738 42.5628 27.8125 42.5628 28.971C42.5628 30.1292 41.6248 31.0679 40.4675 31.0679Z" fill="#1D6CEB"/>
<path fill-rule="evenodd" clip-rule="evenodd" d="M46.4964 36.1057C42.6296 36.1057 39.4839 39.2541 39.4839 43.1237C39.4839 46.9933 42.6296 50.1418 46.4964 50.1418C48.437 50.1418 50.2424 49.3661 51.58 47.9577C52.8241 46.6483 53.5092 44.9316 53.5092 43.1237C53.5092 39.2541 50.3631 36.1057 46.4964 36.1057ZM46.4964 54.3358C40.3186 54.3358 35.293 49.3061 35.293 43.1237C35.293 36.9414 40.3186 31.9116 46.4964 31.9116C52.6742 31.9116 57.7002 36.9414 57.7002 43.1237C57.7002 46.012 56.6052 48.755 54.6176 50.8475C52.4813 53.0968 49.5971 54.3358 46.4964 54.3358Z" fill="#1D6CEB"/>
<path fill-rule="evenodd" clip-rule="evenodd" d="M46.4964 54.3357C40.3186 54.3357 35.293 49.3059 35.293 43.1236C35.293 41.9654 36.231 41.0267 37.3883 41.0267C38.5456 41.0267 39.4839 41.9654 39.4839 43.1236C39.4839 46.9932 42.6296 50.1416 46.4964 50.1416C47.6537 50.1416 48.5917 51.0803 48.5917 52.2388C48.5917 53.397 47.6537 54.3357 46.4964 54.3357Z" fill="#FF4555"/>
<path fill-rule="evenodd" clip-rule="evenodd" d="M37.3883 45.2207C38.5456 45.2207 39.4839 44.282 39.4839 43.1238C39.4839 41.9653 38.5456 41.0266 37.3883 41.0266C36.231 41.0266 35.293 41.9653 35.293 43.1238C35.293 44.282 36.231 45.2207 37.3883 45.2207Z" fill="#CC3744"/>
<path fill-rule="evenodd" clip-rule="evenodd" d="M59.9081 58.643C59.3717 58.643 58.8356 58.4381 58.4262 58.0287L51.4544 51.0518C50.6363 50.2327 50.6363 48.9052 51.4544 48.0861C52.2729 47.267 53.5998 47.267 54.4182 48.0861L61.39 55.0631C62.2081 55.8822 62.2081 57.2097 61.39 58.0287C60.9806 58.4381 60.4446 58.643 59.9081 58.643Z" fill="#1D6CEB"/>
</svg>
