<svg width="73" height="13" viewBox="0 0 73 13" fill="none" xmlns="http://www.w3.org/2000/svg">
<mask id="mask0_251_4189" style="mask-type:luminance" maskUnits="userSpaceOnUse" x="0" y="0" width="9" height="13">
<path fill-rule="evenodd" clip-rule="evenodd" d="M0 0H8.31351V12.6314H0V0Z" fill="white"/>
</mask>
<g mask="url(#mask0_251_4189)">
<path fill-rule="evenodd" clip-rule="evenodd" d="M1.90951 11.0931H5.05323C5.50211 11.0931 5.86894 10.9297 6.15018 10.6024C6.37659 10.3435 6.49453 10.0277 6.50557 9.65547V8.53916C6.49453 8.16771 6.37659 7.85232 6.15018 7.59337C5.86894 7.26613 5.50211 7.10271 5.05323 7.10271H1.90951V11.0931ZM1.90951 5.52929H5.05323C5.50211 5.52929 5.86894 5.36626 6.15018 5.03942C6.37659 4.78008 6.49453 4.4639 6.50557 4.09245V2.97653C6.49453 2.60429 6.37659 2.2889 6.15018 2.02955C5.86894 1.70271 5.50211 1.53969 5.05323 1.53969H1.90951V5.52929ZM0 12.6314V-0.000183105H4.95146C5.58218 -0.000183105 6.11113 0.079159 6.53949 0.237054C6.95603 0.394554 7.29407 0.604159 7.55322 0.862712C7.81237 1.12245 8.00407 1.42087 8.12792 1.75916C8.25138 2.11995 8.31371 2.49179 8.31371 2.87547V4.21087C8.31371 4.59455 8.25138 4.96087 8.12792 5.31021C8.00407 5.6485 7.81237 5.94732 7.55322 6.20587L7.51929 6.23982C7.50786 6.25087 7.49642 6.25679 7.48577 6.25679L7.43528 6.30732L7.48577 6.37561C7.49642 6.37561 7.50786 6.38074 7.51929 6.39219L7.55322 6.42613C7.81237 6.68547 8.00407 6.98429 8.12792 7.32219C8.25138 7.67192 8.31371 8.03824 8.31371 8.42113V9.75732C8.31371 10.1402 8.25138 10.5121 8.12792 10.8728C8.00407 11.2115 7.81237 11.5103 7.55322 11.7689C7.29407 12.0286 6.95603 12.2371 6.53949 12.3953C6.11113 12.5528 5.58218 12.6314 4.95146 12.6314H0Z" fill="#1D6CEB"/>
</g>
<mask id="mask1_251_4189" style="mask-type:luminance" maskUnits="userSpaceOnUse" x="0" y="0" width="73" height="13">
<path fill-rule="evenodd" clip-rule="evenodd" d="M0 12.6316H72.4023V0H0V12.6316Z" fill="white"/>
</mask>
<g mask="url(#mask1_251_4189)">
<path fill-rule="evenodd" clip-rule="evenodd" d="M9.90723 12.6312H11.7059V0.000793457H9.90723V12.6312Z" fill="#1D6CEB"/>
<path fill-rule="evenodd" clip-rule="evenodd" d="M14.0321 11.7947C13.7852 11.5424 13.6029 11.2527 13.4874 10.9263C13.3615 10.5896 13.2988 10.2374 13.2988 9.86876V3.15863H15.1283V9.77402C15.1496 10.1001 15.26 10.3792 15.46 10.6109C15.7018 10.9049 16.0221 11.053 16.4224 11.053H17.5904H19.8296V3.15863H21.6129V12.6315H17.5904H16.5171C15.9172 12.6315 15.4127 12.5522 15.002 12.3947C14.6025 12.2471 14.2786 12.0473 14.0321 11.7947Z" fill="#1D6CEB"/>
<path fill-rule="evenodd" clip-rule="evenodd" d="M29.4538 6.60025V6.49012C29.4538 5.91104 29.2617 5.46104 28.8779 5.14012C28.4933 4.8188 27.9127 4.65814 27.1345 4.65814C26.3775 4.65814 25.791 4.84288 25.3756 5.21077C24.9599 5.57946 24.752 6.07919 24.752 6.71077V7.29538H24.9575H25.7618C26.0769 7.30564 26.4087 7.31077 26.7558 7.31077H28.8223C29.085 7.31077 29.2566 7.26617 29.3355 7.17617C29.4143 7.08696 29.4538 6.89472 29.4538 6.60025ZM30.2659 3.9713C30.9444 4.51406 31.284 5.3213 31.284 6.39498V6.75814C31.284 7.16906 31.2386 7.50577 31.1499 7.76906C31.0604 8.03156 30.9156 8.23959 30.716 8.39235C30.5152 8.54472 30.2553 8.65051 29.9346 8.70814C29.6139 8.76577 29.2274 8.79538 28.7749 8.79538H24.752V9.00025C24.7619 9.40012 24.8364 9.73209 24.9729 9.99498C25.1303 10.2792 25.3358 10.5058 25.5886 10.6739C25.8411 10.8417 26.1408 10.9577 26.4876 11.0213C26.8236 11.0951 27.2926 11.1318 27.8918 11.1318C28.0389 11.1318 28.2385 11.1212 28.4909 11.0999C28.7331 11.09 28.9962 11.0635 29.2798 11.0213C29.554 10.9897 29.8325 10.9526 30.1161 10.9104C30.4001 10.8579 30.6525 10.8054 30.8742 10.7529V12.2679C30.6632 12.3212 30.421 12.3685 30.148 12.4104C29.8743 12.4526 29.6013 12.4897 29.3272 12.5209C29.0534 12.5631 28.7911 12.5924 28.5383 12.6077C28.2858 12.6239 28.0862 12.631 27.9391 12.631C27.0658 12.631 26.3377 12.5659 25.7539 12.4345C25.1709 12.3026 24.6672 12.0867 24.2475 11.7871C23.8259 11.4871 23.4953 11.0975 23.2531 10.6183C23.0109 10.1399 22.8906 9.54775 22.8906 8.84235V6.67959C22.8906 6.17393 22.9798 5.70814 23.1585 5.28222C23.3367 4.85551 23.6006 4.48446 23.9477 4.16946C24.3051 3.85327 24.752 3.60617 25.2881 3.42696C25.8249 3.24775 26.456 3.15814 27.1818 3.15814C28.5596 3.15814 29.5879 3.42933 30.2659 3.9713Z" fill="#1D6CEB"/>
<path fill-rule="evenodd" clip-rule="evenodd" d="M34.9088 12.62V10.7726L40.4622 10.8042C40.9245 10.7943 41.311 10.6364 41.6218 10.3305C41.9319 10.0258 42.0873 9.64645 42.0873 9.19368C42.0873 8.76263 41.8924 8.38842 41.5035 8.07263C41.1138 7.75684 40.6933 7.59894 40.2409 7.59894H37.4324C37.0226 7.57802 36.6597 7.49434 36.3442 7.3471C35.9651 7.15723 35.6448 6.90973 35.3817 6.605C35.1186 6.28881 34.9139 5.93079 34.7668 5.53092C34.6185 5.13105 34.5459 4.71539 34.5459 4.28355C34.5459 3.78894 34.6323 3.32789 34.8054 2.90197C34.9794 2.47605 35.2133 2.1125 35.5083 1.81289C35.8026 1.5121 36.1572 1.27329 36.5729 1.09408C36.9879 0.915655 37.4324 0.82605 37.9066 0.82605H43.4911V2.64144L38.0951 2.62526C37.6537 2.62526 37.2774 2.78079 36.9674 3.09144C36.6574 3.40171 36.5016 3.77355 36.5016 4.205C36.5016 4.57289 36.6175 4.90447 36.8487 5.19894C37.0802 5.4946 37.38 5.68447 37.748 5.76816C37.8005 5.78908 37.8588 5.79973 37.9216 5.79973H37.9693H38.0951H41.0302C41.4506 5.8096 41.8344 5.8996 42.1812 6.06776C42.5815 6.26789 42.9231 6.52052 43.2079 6.82487C43.4911 7.13118 43.7096 7.49158 43.8615 7.90763C44.0141 8.3225 44.0903 8.7571 44.0903 9.20987C44.0903 9.57855 44.0276 9.96697 43.9017 10.3779C43.7755 10.7888 43.5913 11.1571 43.3487 11.4832C42.8024 12.2407 42.0289 12.62 41.0302 12.62H34.9088Z" fill="#1D6CEB"/>
<path fill-rule="evenodd" clip-rule="evenodd" d="M52.4406 3.3676C52.7143 3.40983 52.9561 3.4576 53.1664 3.5097V5.02589V5.05707C52.9455 5.00457 52.6982 4.9576 52.4252 4.91497C52.1408 4.87273 51.8623 4.83049 51.589 4.78944C51.3054 4.75707 51.0466 4.73655 50.8155 4.72549C50.5737 4.70457 50.3792 4.69391 50.2313 4.69391C49.6325 4.69391 49.1639 4.72549 48.8283 4.78944C48.4906 4.86247 48.1968 4.98168 47.9447 5.1447C47.6919 5.30733 47.4915 5.53076 47.3448 5.81536C47.2075 6.07865 47.1341 6.4047 47.1239 6.7947V6.99957V8.76799V8.97286C47.1341 9.36286 47.2075 9.68891 47.3448 9.9522C47.4915 10.2356 47.6919 10.4602 47.9447 10.6229C48.1968 10.7863 48.4906 10.9047 48.8283 10.9781C49.1639 11.0413 49.6325 11.0725 50.2313 11.0725C50.3792 11.0725 50.5737 11.0626 50.8155 11.0413C51.0466 11.031 51.3054 11.0097 51.589 10.9781C51.8623 10.9359 52.1408 10.8937 52.4252 10.8522C52.6982 10.81 52.9455 10.7622 53.1664 10.7093V10.7413V12.2567C52.9561 12.3096 52.7143 12.3569 52.4406 12.3988C52.1672 12.441 51.8935 12.4781 51.6201 12.5097C51.3468 12.5515 51.0841 12.5784 50.8312 12.5883C50.6845 12.5989 50.537 12.6096 50.3899 12.6198H50.2313H49.9481C49.1695 12.5989 48.5332 12.5314 48.039 12.415C47.4603 12.2887 46.9602 12.0755 46.5397 11.7755C46.1192 11.4755 45.7887 11.0863 45.5461 10.6067C45.3039 10.1283 45.1836 9.53615 45.1836 8.83076V7.88378V6.93602C45.1836 6.23141 45.3039 5.63852 45.5461 5.1601C45.7887 4.68049 46.1192 4.29089 46.5397 3.99128C46.9602 3.69128 47.4623 3.47536 48.0461 3.34391C48.6302 3.21247 49.3592 3.14655 50.2313 3.14655C50.3792 3.14655 50.5792 3.15444 50.8312 3.17023C51.0841 3.18641 51.3468 3.21523 51.6201 3.25786C51.8935 3.28905 52.1672 3.32576 52.4406 3.3676Z" fill="#1D6CEB"/>
<path fill-rule="evenodd" clip-rule="evenodd" d="M59.8071 11.0099H60.8015V10.1414V8.16735H59.3973H57.2196C56.9679 8.16735 56.7734 8.18867 56.6366 8.23091C56.4993 8.26209 56.3999 8.33078 56.3364 8.43578C56.2626 8.54078 56.2157 8.67814 56.1952 8.8467C56.1739 9.01525 56.1628 9.22525 56.1628 9.47828C56.1628 9.79328 56.179 10.0518 56.2106 10.252C56.2417 10.4517 56.2891 10.6096 56.3522 10.7249C56.4157 10.831 56.5099 10.9045 56.6366 10.9463C56.7734 10.9885 56.9572 11.0099 57.1884 11.0099H59.3973H59.8071ZM62.6159 4.86735C62.6889 5.25735 62.7256 5.80446 62.7256 6.50985V10.5516V12.62H60.8015H60.3755H56.9525C56.3415 12.62 55.8635 12.547 55.5159 12.3989C55.1582 12.2521 54.89 12.0437 54.7113 11.7752C54.5326 11.5072 54.4269 11.1835 54.3953 10.8046C54.3543 10.4363 54.333 10.0151 54.333 9.54104C54.333 9.0042 54.3642 8.55183 54.4269 8.18354C54.4904 7.79393 54.63 7.4813 54.8458 7.24406C55.0608 7.00683 55.368 6.83078 55.7684 6.71472C56.1573 6.59946 56.6886 6.54143 57.3619 6.54143H60.8015V6.19406C60.8015 5.78393 60.7751 5.49933 60.7226 5.34143C60.6698 5.18354 60.57 5.06275 60.4224 4.97906C60.3065 4.90485 60.0335 4.8413 59.602 4.7892H59.5397C59.1709 4.7363 58.6924 4.70985 58.1031 4.70985C57.5564 4.70985 56.9572 4.75722 56.3048 4.85156C56.0729 4.88354 55.6946 4.95222 55.1688 5.05722L54.8848 5.10459V3.49406L54.9326 3.47867C55.8784 3.29985 56.7734 3.19367 57.614 3.16249C57.825 3.15183 58.0404 3.1463 58.2617 3.1463C59.3551 3.1463 60.2335 3.21538 60.8962 3.35235C61.4326 3.4688 61.8349 3.64959 62.1032 3.8963C62.3714 4.1442 62.5422 4.46788 62.6159 4.86735Z" fill="#1D6CEB"/>
<path fill-rule="evenodd" clip-rule="evenodd" d="M71.6759 3.97589C71.9291 4.22339 72.1126 4.50997 72.2281 4.83641C72.3441 5.17233 72.4021 5.52602 72.4021 5.89352V12.6198H70.5723V6.00483C70.5612 5.66812 70.4563 5.38865 70.2563 5.1676C70.0145 4.87273 69.6938 4.72549 69.2943 4.72549H68.1421H65.9024V12.6198H64.1191V3.14655H68.1421H69.2C69.7987 3.14655 70.3036 3.22549 70.7135 3.38378C71.1028 3.53062 71.4243 3.72878 71.6759 3.97589Z" fill="#1D6CEB"/>
</g>
</svg>
