<svg width="24" height="24" viewBox="0 0 24 24" fill="none" xmlns="http://www.w3.org/2000/svg">
<g clip-path="url(#clip0_113_23250)">
<path d="M17.44 15.32C18.7538 14.5253 19.8149 13.374 20.5 12C19.6776 10.477 18.446 9.21402 16.9441 8.35355C15.4423 7.49307 13.7299 7.06929 12 7.12998C11.1746 7.13672 10.3527 7.23737 9.55005 7.42998L11.07 8.99998C11.366 8.87808 11.6804 8.80708 12 8.78998C12.8514 8.78998 13.6679 9.12818 14.2699 9.73017C14.8719 10.3322 15.21 11.1486 15.21 12C15.204 12.3163 15.1501 12.6298 15.05 12.93L17.44 15.32Z" fill="#262626"/>
<path d="M12 16.8701C12.8254 16.8633 13.6474 16.7627 14.45 16.5701L12.93 15.0501C12.6311 15.1549 12.3168 15.209 12 15.2101C11.1487 15.2101 10.3322 14.8719 9.73019 14.2699C9.1282 13.6679 8.79 12.8514 8.79 12.0001C8.80709 11.6804 8.87809 11.366 9 11.0701L6.56 8.68005C5.2463 9.47475 4.18517 10.626 3.5 12.0001C4.32246 13.5231 5.55406 14.786 7.05592 15.6465C8.55778 16.507 10.2702 16.9307 12 16.8701Z" fill="#262626"/>
<path d="M5.24003 4.53003L4.53003 5.24003L7.47003 8.18003L9.41003 10.12L13.88 14.59L15.54 16.24L18.76 19.47L19.47 18.76L16.53 15.82L14.59 13.88L10.12 9.41003L8.46003 7.76003L5.24003 4.53003Z" fill="#262626"/>
</g>
<defs>
<clipPath id="clip0_113_23250">
<rect width="24" height="24" fill="white"/>
</clipPath>
</defs>
</svg>
