<svg width="24" height="24" viewBox="0 0 24 24" fill="none" xmlns="http://www.w3.org/2000/svg">
<g clip-path="url(#clip0_113_23268)">
<path d="M12 7.12998C10.2702 7.06929 8.55778 7.49307 7.05592 8.35355C5.55406 9.21402 4.32246 10.477 3.5 12C4.32246 13.523 5.55406 14.7859 7.05592 15.6464C8.55778 16.5069 10.2702 16.9307 12 16.87C13.7298 16.9307 15.4422 16.5069 16.9441 15.6464C18.4459 14.7859 19.6775 13.523 20.5 12C19.6775 10.477 18.4459 9.21402 16.9441 8.35355C15.4422 7.49307 13.7298 7.06929 12 7.12998ZM12 15.21C11.3651 15.21 10.7445 15.0217 10.2166 14.669C9.68874 14.3163 9.2773 13.8149 9.03435 13.2284C8.79139 12.6418 8.72782 11.9964 8.85168 11.3737C8.97554 10.7511 9.28126 10.1791 9.73019 9.73017C10.1791 9.28124 10.7511 8.97552 11.3738 8.85166C11.9964 8.7278 12.6419 8.79137 13.2284 9.03433C13.815 9.27729 14.3163 9.68872 14.669 10.2166C15.0217 10.7445 15.21 11.3651 15.21 12C15.21 12.8513 14.8718 13.6678 14.2698 14.2698C13.6678 14.8718 12.8513 15.21 12 15.21Z" fill="#262626"/>
</g>
<defs>
<clipPath id="clip0_113_23268">
<rect width="24" height="24" fill="white"/>
</clipPath>
</defs>
</svg>
