<svg width="24" height="25" viewBox="0 0 24 25" fill="none" xmlns="http://www.w3.org/2000/svg">
<g clip-path="url(#clip0_542_26547)">
<path d="M10.5699 3.67989C9.3768 3.68355 8.20223 3.97566 7.14637 4.53133C6.0905 5.08699 5.18466 5.88973 4.50605 6.8711C3.82745 7.85248 3.39621 8.9834 3.24909 10.1674C3.10198 11.3515 3.24335 12.5536 3.66117 13.6712C4.07898 14.7888 4.76084 15.7888 5.64862 16.5859C6.5364 17.3831 7.60377 17.9537 8.75974 18.2493C9.91571 18.5448 11.126 18.5564 12.2874 18.2832C13.4489 18.0099 14.527 17.4598 15.4299 16.6799L19.9999 21.1799L20.7099 20.4699L16.1699 15.9299C17.1095 14.8602 17.7195 13.5416 17.9266 12.1331C18.1337 10.7246 17.9289 9.28618 17.337 7.99138C16.7451 6.69658 15.7913 5.60062 14.5906 4.83562C13.3899 4.07063 11.9936 3.66926 10.5699 3.67989ZM10.5699 17.4699C9.30414 17.4699 8.06677 17.0945 7.01429 16.3913C5.96182 15.6881 5.14151 14.6885 4.65711 13.5191C4.17271 12.3496 4.04597 11.0628 4.29292 9.82132C4.53986 8.57984 5.1494 7.43947 6.04446 6.54441C6.93952 5.64935 8.07989 5.03981 9.32136 4.79287C10.5628 4.54592 11.8497 4.67266 13.0191 5.15706C14.1886 5.64147 15.1881 6.46177 15.8913 7.51424C16.5946 8.56672 16.9699 9.80409 16.9699 11.0699C16.9739 11.9129 16.8113 12.7483 16.4914 13.5283C16.1715 14.3082 15.7008 15.0173 15.1061 15.6148C14.5114 16.2123 13.8045 16.6864 13.0261 17.0099C12.2476 17.3334 11.4129 17.4999 10.5699 17.4999V17.4699Z" fill="white"/>
</g>
<defs>
<clipPath id="clip0_542_26547">
<rect width="24" height="24" fill="white" transform="translate(0 0.5)"/>
</clipPath>
</defs>
</svg>
